<svg width="180" height="180" viewBox="0 0 180 180" fill="none" xmlns="http://www.w3.org/2000/svg">
<path fill-rule="evenodd" clip-rule="evenodd" d="M79.7983 0.681788C-5.10607 11.47 -29.7642 121.725 42.7114 166.512C102.486 203.449 180.032 160.137 180 89.8312C179.976 36.722 132.012 -5.95247 79.7983 0.681788ZM105.565 11.4183C156.884 21.6869 184.926 77.4744 162.418 124.522C133.635 184.686 47.2245 185.084 17.9039 125.188C10.8972 110.874 7.84338 90.1597 10.711 76.3982C18.5013 39.0174 44.9099 14.8172 83.0837 10.0761C87.2693 9.55583 100.082 10.3211 105.565 11.4183ZM82.5361 12.911C17.0759 21.0117 -10.9557 96.9783 34.2888 143.662C82.6708 193.583 167.488 159.421 167.488 90.0139C167.488 44.7734 126.401 7.48227 82.5361 12.911ZM96.2308 63.7753C99.5896 70.0936 102.625 75.5506 102.977 75.9018C103.329 76.253 109.603 77.5164 116.918 78.7095L130.219 80.8789L120.565 90.8927L110.912 100.906L112.85 114.163C113.916 121.454 114.69 127.521 114.57 127.644C114.451 127.769 108.99 125.245 102.434 122.038C95.8793 118.83 90.2601 116.211 89.948 116.217C89.6359 116.224 84.1093 118.825 77.666 121.998C71.2228 125.171 65.8205 127.631 65.6606 127.465C65.5007 127.299 66.1972 121.28 67.2091 114.089L69.0489 101.014L59.5322 91.1423C53.222 84.596 50.2821 81.1767 50.8067 80.9929C51.242 80.8409 57.1426 79.7641 63.9188 78.6005C78.1829 76.1508 76.8496 76.8152 80.1158 70.5344C85.6331 59.926 89.7405 52.287 89.9277 52.287C90.0356 52.287 92.872 57.4565 96.2308 63.7753Z" fill="url(#paint0_linear_4_13)"/>
<defs>
<linearGradient id="paint0_linear_4_13" x1="-5.72728" y1="195.429" x2="188.269" y2="17.592" gradientUnits="userSpaceOnUse">
<stop stop-color="#B51D50"/>
<stop offset="1" stop-color="#EF7F1A"/>
</linearGradient>
</defs>
</svg>
