<svg width="180" height="180" viewBox="0 0 180 180" fill="none" xmlns="http://www.w3.org/2000/svg">
<path fill-rule="evenodd" clip-rule="evenodd" d="M80.1526 0.520017C7.60088 8.44799 -25.5763 94.8139 22.7124 150.045C46.0331 176.719 85.0516 186.882 119.359 175.219C165.216 159.629 190.45 109.572 175.868 63.119C163.121 22.508 122.435 -4.10099 80.1526 0.520017ZM97.1079 10.3569C164.65 17.6196 194.28 97.1037 147.47 145.454C101.592 192.842 22.1102 168.218 10.9236 103.152C2.16206 52.1917 46.1091 4.87311 97.1079 10.3569ZM79.5323 13.1661C46.7971 17.4896 19.5855 43.5213 13.3558 76.474C12.2083 82.5459 12.3708 99.0767 13.6381 105.139C21.3751 142.151 52.2917 167.31 89.9976 167.279C133.699 167.242 167.444 133.564 167.332 90.097C167.235 52.8394 142.567 22.2633 106.132 14.24C100.51 13.002 85.395 12.3918 79.5323 13.1661ZM100.936 49.5745C133.216 57.9639 142.821 100.148 117.419 121.96C90.172 145.357 48.1836 126.034 48.1836 90.097C48.1836 62.103 73.7074 42.4973 100.936 49.5745ZM84.9454 60.848C61.5701 65.2476 52.3579 92.9686 68.5032 110.325C86.6825 129.867 119.533 116.846 119.533 90.097C119.533 71.9172 102.53 57.5387 84.9454 60.848ZM98.7842 71.8411C113.853 79.2389 113.901 100.767 98.8674 108.355C94.1565 110.733 85.7254 110.712 81.0069 108.311C66.3668 100.861 65.9927 79.4682 80.3763 72.2419C85.9868 69.423 93.5254 69.259 98.7842 71.8411ZM85.3485 81.7932C79.8643 85.3278 78.7496 91.692 82.8167 96.2494C89.3073 103.523 101.187 97.6895 99.2491 88.1801C98.0092 82.0952 90.3443 78.5731 85.3485 81.7932Z" fill="url(#paint0_linear_5_20)"/>
<defs>
<linearGradient id="paint0_linear_5_20" x1="-7.35862" y1="176.092" x2="193.875" y2="-0.381855" gradientUnits="userSpaceOnUse">
<stop stop-color="#B51D50"/>
<stop offset="1" stop-color="#EF7F1A"/>
</linearGradient>
</defs>
</svg>
