<svg width="180" height="180" viewBox="0 0 180 180" fill="none" xmlns="http://www.w3.org/2000/svg">
<path fill-rule="evenodd" clip-rule="evenodd" d="M72.4451 1.29262C55.621 4.899 41.3925 12.2211 29.3056 23.4931C16.2916 35.6289 9.30033 46.7107 3.75187 63.9969C-1.24641 79.5673 -1.25109 100.643 3.74065 116.28C13.5997 147.165 35.6793 168.334 67.7668 177.664C78.6288 180.822 100.576 180.77 112.678 177.557C142.214 169.715 166.094 147.166 175.361 118.37C179.285 106.177 180.83 92.7729 179.571 81.8424C174.764 40.0952 147.068 9.70394 105.824 0.918802C99.334 -0.464216 79.6094 -0.24266 72.4451 1.29262ZM104.257 12.023C107.86 12.8077 112.07 13.7388 113.614 14.0911C117.317 14.9374 130.745 21.4396 134.852 24.3755C151.371 36.1862 163.044 53.9234 167.533 74.0343C168.193 76.9867 168.715 84.4533 168.695 90.6266C168.641 107.333 164.468 121.32 155.721 134.106C143.577 151.859 128.041 162.523 106.597 167.826C98.1822 169.906 78.5615 169.383 69.6381 166.841C41.6909 158.879 20.2896 136.938 13.0738 108.85C10.4278 98.5519 10.425 81.7829 13.0673 71.3327C19.7236 45.0026 38.753 23.9753 64.0242 15.0242C76.271 10.6858 92.5505 9.47165 104.257 12.023ZM78.059 13.037C52.466 17.395 30.9851 33.3714 20.0697 56.1653C2.06862 93.7567 17.0214 139.699 53.4325 158.675C66.5476 165.51 73.8804 167.193 90.2226 167.124C100.233 167.081 105.733 166.613 109.404 165.49C112.234 164.625 115.565 163.608 116.806 163.23C120.797 162.014 131.259 156.31 135.909 152.816C146.433 144.909 154.597 134.947 160.127 123.263C163.137 116.9 163.889 114.677 166.405 104.666C166.96 102.456 167.399 95.8678 167.381 90.0254C167.34 76.6969 165.401 67.8151 160.103 56.6768C148.852 33.021 127.518 17.2622 100.983 13.0068C90.5501 11.3329 88.0462 11.3358 78.059 13.037ZM73.2806 55.082C73.5931 55.9311 73.8486 57.9075 73.8486 59.474V62.3221H101.45C116.632 62.3221 129.039 62.652 129.023 63.0541C129.007 63.4562 127.218 65.2101 125.047 66.9503C122.876 68.6906 118.621 72.4424 115.591 75.2865L110.083 80.4584L120.184 89.2026L130.286 97.9467L102.067 98.2054L73.8486 98.4631V114.488V130.514L76.4216 130.823C78.5914 131.083 78.9947 131.591 78.9947 134.059V136.987H71.5094H64.0242V134.059C64.0242 131.591 64.4274 131.083 66.5972 130.823L69.1703 130.514V92.6762C69.1703 71.8656 69.451 54.5461 69.7944 54.1889C70.9003 53.0353 72.6968 53.495 73.2806 55.082Z" fill="url(#paint0_linear_4_3)"/>
<defs>
<linearGradient id="paint0_linear_4_3" x1="-15.0389" y1="206.773" x2="189.156" y2="-22.8585" gradientUnits="userSpaceOnUse">
<stop stop-color="#B51D50"/>
<stop offset="1" stop-color="#EF7F1A"/>
</linearGradient>
</defs>
</svg>
